# xmcd
#
# Track frame offsets:
#	150
#	12342
#	33975
#	46702
#	61852
#	77760
#	90020
#	104720
#	124847
#	141377
#	159150
#	181817
#	195922
#	205815
#	218115
#	229955
#	239772
#	250897
#	264910
#	272575
#	286987
#	299372
#	311282
#
# Disc length: 4287 seconds
# Revision: 1
# Processed by: cddbd v1.5.2PL0 Copyright (c) Steve Scherf et al.
# Submitted via: dBpowerAMP V12.0
#
DISCID=3c10bd17
DTITLE=Clifton Chenier - Louisiana Blues And Zydeco and Bon Ton Roulet
DYEAR=1965
DGENRE=Zydeco
TTITLE0=Eh, 'Tite Fille
TTITLE1=Banana Man
TTITLE2=Hot Rod
TTITLE3=It's Hard
TTITLE4=I Can Look Down At Your Woman
TTITLE5=I Can't Stand
TTITLE6=Zydeco Et Pas Sale
TTITLE7=Lafayette Waltz
TTITLE8=Louisiana Two Step
TTITLE9=Clifton's Waltz
TTITLE10=Louisana Blues
TTITLE11=Bon Ton Roulet
TTITLE12=Frog Legs
TTITLE13=If I Ever Get Lucky
TTITLE14=Black Gal
TTITLE15=Long Toes
TTITLE16=Baby, Please Don't Go
TTITLE17=Blues De Ma Negresse
TTITLE18=Sweet Little Doll Zydeco
TTITLE19=Jole Blonde
TTITLE20=Ay, Ai, Ai
TTITLE21=French Town Waltz
TTITLE22=Keep On Scratching
EXTD=
EXTT0=
EXTT1=
EXTT2=
EXTT3=
EXTT4=
EXTT5=
EXTT6=
EXTT7=
EXTT8=
EXTT9=
EXTT10=
EXTT11=
EXTT12=
EXTT13=
EXTT14=
EXTT15=
EXTT16=
EXTT17=
EXTT18=
EXTT19=
EXTT20=
EXTT21=
EXTT22=
PLAYORDER=
